<svg id="图层_1" data-name="图层 1" xmlns="http://www.w3.org/2000/svg" viewBox="0 0 841.89 595.28"><defs><style>.cls-1{fill:#040000;}.cls-2{fill:#231815;}</style></defs><title>彼岸logo</title><path class="cls-1" d="M458.95,225l-7.08,11.93a4.5,4.5,0,0,1-4.2,2.23q-4.46,0-4.46-4.33a5.13,5.13,0,0,1,.66-2.75L469,189.86q2-3.28,4.85-3.28,4.2,0,4.2,4.46a6.88,6.88,0,0,1-1,3.67L464.72,215.3q3.54,1.05,3.54,5.51v106q0,4.59-4.72,4.59t-4.59-4.59Zm33.83-14h14.82q4.72,0,4.72,3.8a5.46,5.46,0,0,1-1.7,3.67,3.94,3.94,0,0,1-2.36,1.44H492.77v95.66l11.41-5.38a5.55,5.55,0,0,1,2.49-.66q4.33,0,4.33,4.46,0,3-3.41,4.72l-16.26,7.74a9.54,9.54,0,0,1-4.06.92,3,3,0,0,1-3.28-2.88,118.2,118.2,0,0,1-.52-13.37V193.92q0-6.69,4.59-6.69t4.72,6.69ZM541,304.21,515.33,330a5.56,5.56,0,0,1-4.06,1.7q-4.59,0-4.59-4.2a3.55,3.55,0,0,1,1-2.62l28.45-28.85V273.4q0-6.56,4.72-6.56t4.59,4.2v25l29.37,27.53a5.36,5.36,0,0,1,1.84,4.06q0,3.8-4.46,3.8a5.42,5.42,0,0,1-3.8-1.44Zm6.82-101.5a9.48,9.48,0,0,1-2.1,4.33c-1.14,1.31-2.41,8.14-3.8,10.24h.26l.26-.13h.39l.26-.13.13.13q.66.13,3,.39l1.7.13q12.32,1.18,19.41,14.82,3.41,6.56,3.41,21.11v34.62q0,8-4.72,8t-4.59-7.08V252.55q0-26.48-19-26.49-10.89,0-16.13,10-2.88,5.51-2.88,15.47v39.07q0,5.64-4.46,5.64-4.85,0-4.85-5.64V255.42c0-14.86.92-18.91,2.75-22.41q3.54-6.95,13-13.5l7.47-16.8H512.57q-5.38,0-5.38-4.33,0-4.59,6.95-4.59h56.64q6.42,0,6.42,4.59,0,4.33-4.33,4.33Z"/><rect class="cls-1" x="462.38" y="206.96" width="5.89" height="17.07"/><polygon class="cls-1" points="529.57 220.02 539.76 198.87 550.13 200.09 541.68 219.2 529.57 220.02"/><path class="cls-1" d="M92.84,194.84,62.55,218.71a5.23,5.23,0,0,1-3.15,1.18q-4.33,0-4.33-4.46a4.65,4.65,0,0,1,1.7-3.93l30.16-24A6.44,6.44,0,0,1,91,185.93a4.14,4.14,0,0,1,3.28,1.84,4.89,4.89,0,0,1,1,2.88Q95.33,192.88,92.84,194.84ZM74,240.86,63.6,249.78a5.07,5.07,0,0,1-3.28,1.31q-4.33,0-4.33-4.59a4.52,4.52,0,0,1,1.57-3.67L94,211.1a6.53,6.53,0,0,1,4.33-1.84,3.86,3.86,0,0,1,3,1.57,4.57,4.57,0,0,1,1.18,2.88,5.73,5.73,0,0,1-2.36,4.46l-17,14.68.13,1.44v93.11q0,4.72-4.72,4.72T74,327.42ZM115,247v42.63l-14,39.6a4.41,4.41,0,0,1-4.46,3.15q-4.59,0-4.59-4.59a4.9,4.9,0,0,1,.26-1.57l13.5-38.42V231q0-10.36,1.31-13.77,5.24-13.5,22.68-13.5h15.6V191.7q0-5.77,4.59-5.77t4.72,5.77v12.06h8.78q13.77,0,19.54,5.11t5.64,11.54v8.78q0,4.72-4.72,4.72t-4.59-4.72v-7.6q0-8.92-13.37-8.92H154.6v25.44h5.9q8.26,0,13.11,3,7.74,4.85,7.74,20.32v28.47l-20.59,13.37L188.16,323a4.89,4.89,0,0,1,2.23,4.2q0,4.46-4.46,4.46a4.21,4.21,0,0,1-2.49-.66l-31.21-22-33,21.5a6.24,6.24,0,0,1-3.54,1q-4.33,0-4.33-4.46,0-2.63,3.28-4.72L144,303l-8.78-6.29q-8.26-5.9-8.39-7.87a66.89,66.89,0,0,1-.26-7.87V263q0-5.64,4.59-5.64t4.72,5.64v22.31l16.65,12.06,19.54-13V262.1q0-8.78-1.31-10.88-2.63-4.2-12.19-4.2Zm0-8.92h30.29V212.67h-13.9q-9.71,0-12.59,2.49a11.31,11.31,0,0,0-3.8,9Z"/><rect class="cls-1" x="164.55" y="203.76" width="23.98" height="8.83"/><rect class="cls-1" x="172.13" y="212.27" width="23.98" height="8.83" transform="translate(400.81 32.56) rotate(90)"/><path class="cls-1" d="M253.1,323,265,283.23V263.94q0-14.95,1.44-18.36,4.33-10.36,22.55-10.36h78.82q7.47,0,7.47,4.59,0,4.33-4.59,4.33H288.11q-8.39,0-11,1.84t-2.75,7.74v29.52l-10.88,37.24q-2.36,8.13-6.16,8.13-4.2,0-4.2-3.93Zm59.11-108.58V191.3q0-5.64,4.59-5.64t4.72,5.64v23.08h26.53q10.1,0,10.1-9.44V195.5q0-5.77,4.59-5.77t4.72,5.77v12.59a13.24,13.24,0,0,1-4.46,9.7c-3.85,3.67-3.19,5.51-12.37,5.51H284.44q-10.1,0-15.34-5.51a13.76,13.76,0,0,1-3.93-9.7V195.5q0-5.77,4.59-5.77t4.72,5.77v9.44q0,5.9,2.36,7.6t7.6,1.84Zm6.56,59.32v-7.4H293q-5.9,0-5.9-4.59,0-4.33,5-4.33h63.74q7.47,0,7.47,4.72,0,4.2-4.59,4.2h-31v7.4h38.72q7.47,0,7.47,4.46t-4.59,4.46H327.68v43.1q0,6-4.46,6t-4.46-5.51V282.62h-35.9q-5.77,0-5.77-4.46t4.85-4.46Z"/><rect class="cls-1" x="351.04" y="206.89" width="23.98" height="8.83" transform="translate(574.34 -151.72) rotate(90)"/><rect class="cls-1" x="349.7" y="214.47" width="16.82" height="8.83" transform="translate(716.21 437.77) rotate(180)"/><path class="cls-1" d="M657.21,306.83v-80H643q-5.38,0-5.38-4.46t5.38-4.46h14.16V193.27q0-6.56,4.85-6.56,4.46,0,4.46,5v26.22h13.37q5.51,0,5.51,4.46t-5.51,4.46H666.52V302.9l14.42-6a4.63,4.63,0,0,1,1.84-.39q3.93,0,3.93,3.93,0,3.41-3.93,5.11l-39.47,16.91a6.1,6.1,0,0,1-2.49.52,3.51,3.51,0,0,1-2.88-1.57,5.87,5.87,0,0,1-1.31-3.28q0-2.88,3.54-4.33Zm100.3-23.34,11.67-16.78c.26-.35.92-.52,2-.52q4.85,0,4.85,4.59a4.21,4.21,0,0,1-.66,2.49l-14.55,20.85L758,297.52v2l.13.92v1.84l.13,1.31v2.1l.13,2,.13,2.75.13,2.75.13,2.75.39-.39.26-.13a1.53,1.53,0,0,0,.26-.39c.17-.09.26-.18.26-.26l.92-.92.26-.26.26-.39.13-.13q4.59-5.51,7.08-5.51,4.59,0,4.59,4.46,0,1.44-3.8,5.64Q756.86,332,754.1,332a3.65,3.65,0,0,1-3.93-3.28,85.81,85.81,0,0,1-.79-13.64v-4.33a1.07,1.07,0,0,0-.26-.79l.26-.79h-.13l-13.11,16.39q-.52.66-2.36.66-4.59,0-4.59-3.8a4.51,4.51,0,0,1,1-2.88l18.36-24.13V284.67l-6.42-65.31H705.85q-4.33,0-5.11,3.8a50.76,50.76,0,0,0-.66,9.7v4.06h13.5q13.9,0,18.62,8.52,2.88,5.24,2.88,16.65v32.66q0,8.92-5.64,8.92h-.52a2.21,2.21,0,0,1-.66-.13,3.7,3.7,0,0,1-.79-.13l-.52-.13-14.16-2.75q-6-1.18-6-5.11t3.54-4.06h.39l15.08,2.75V257.25q0-6.56-3-9.31-2.36-2.1-8.13-2.1H700.08v43l-7.21,35.4q-1.7,8.26-5.24,8.26a5.27,5.27,0,0,1-3.8-1.7,3.63,3.63,0,0,1-1.18-2.62v-.52l.13-.26v-.26l8-38.29V234.31q0-12.19,2.62-17.31,3.41-6.56,11.93-6.56h36.84l-.52-15.73v-.52a2.24,2.24,0,0,1-.13-.92V191.7q0-6.29,4.59-6.29,4.85,0,4.85,6.95v18.09h16.26q5.11,0,5.11,4.59,0,4.33-5.11,4.33H751.48Zm9.6-96.06a6.77,6.77,0,0,1,4.33,1.57,7.22,7.22,0,0,1,.39,11,6.88,6.88,0,0,1-4.85,2,7.33,7.33,0,0,1-5-12.72A7.49,7.49,0,0,1,767.11,187.43Z"/><rect class="cls-1" x="711.12" y="236.94" width="23.98" height="8.83"/><rect class="cls-1" x="718.69" y="245.45" width="23.98" height="8.83" transform="translate(980.55 -480.82) rotate(90)"/><path class="cls-2" d="M108.75,404.16l-16.21-22a11.71,11.71,0,0,1-.88-1.32l-.25-.39h-.09a11.47,11.47,0,0,1,.05,1.2v22.52H89.5V376.93h1.44L107,398.74q.53.72,1.16,1.76h.09q-.09-1.34-.09-2.29V376.93h1.86v27.23Z"/><path class="cls-2" d="M156.66,404.16V376.93h1.88v27.23Z"/><path class="cls-2" d="M219,404.16l-3.62-8a8.72,8.72,0,0,0-2.24-3.3,4.52,4.52,0,0,0-2.8-.84H207v12.13h-1.88V376.93h7.56a7.89,7.89,0,0,1,5.66,2A6.75,6.75,0,0,1,220.4,384a7.3,7.3,0,0,1-1.69,4.92,8,8,0,0,1-4.73,2.55v.07q1.62.65,3.15,3.92l4,8.68Zm-12-25.49v11.65h4.68a7.16,7.16,0,0,0,5-1.63,5.71,5.71,0,0,0,1.83-4.48,5.16,5.16,0,0,0-1.65-4.07,6.89,6.89,0,0,0-4.73-1.47Z"/><path class="cls-2" d="M274.94,404.16h-1.41l-9.95-27.23h2.11l7.88,21.94a15,15,0,0,1,.7,2.58h.09a16.63,16.63,0,0,1,.77-2.62l8.37-21.9h2Z"/><path class="cls-2" d="M343.73,404.16l-3.11-8.47H328.83l-3.13,8.47h-2.06l10.27-27.23h1.79l10.14,27.23Zm-8.35-22.78a8.18,8.18,0,0,1-.33-1.12l-.28-.95h-.09a17.89,17.89,0,0,1-.62,2L329.48,394H340Z"/><path class="cls-2" d="M409.31,404.16l-16.21-22a11.71,11.71,0,0,1-.88-1.32l-.25-.39h-.09a11.47,11.47,0,0,1,.05,1.2v22.52h-1.88V376.93h1.44l16.1,21.81q.53.72,1.16,1.76h.09q-.09-1.34-.09-2.29V376.93h1.86v27.23Z"/><path class="cls-2" d="M474.95,404.16l-3.11-8.47H460l-3.13,8.47h-2.06l10.27-27.23h1.79l10.14,27.23Zm-8.35-22.78a8.18,8.18,0,0,1-.33-1.12l-.28-.95h-.09a17.89,17.89,0,0,1-.62,2L460.69,394H471.2Z"/><path class="cls-2" d="M585.45,404.16l-3.62-8a8.72,8.72,0,0,0-2.24-3.3,4.52,4.52,0,0,0-2.8-.84h-3.37v12.13h-1.88V376.93h7.56a7.89,7.89,0,0,1,5.66,2,6.75,6.75,0,0,1,2.06,5.13,7.3,7.3,0,0,1-1.69,4.92,8,8,0,0,1-4.73,2.55v.07q1.62.65,3.15,3.92l4,8.68Zm-12-25.49v11.65h4.68a7.16,7.16,0,0,0,5-1.63,5.71,5.71,0,0,0,1.83-4.48,5.16,5.16,0,0,0-1.65-4.07,6.89,6.89,0,0,0-4.73-1.47Z"/><path class="cls-2" d="M632.72,404.16V376.93h1.88v27.23Z"/><path class="cls-2" d="M680.32,403.19V401a10.9,10.9,0,0,0,5.92,1.86,7.61,7.61,0,0,0,4.84-1.32,4.47,4.47,0,0,0,1.64-3.69,4.85,4.85,0,0,0-1.11-3.34,21.64,21.64,0,0,0-4.82-3.39q-4.13-2.41-5.23-4a6.54,6.54,0,0,1-1.1-3.75,6.34,6.34,0,0,1,2.24-4.9,8.6,8.6,0,0,1,6-2,15,15,0,0,1,4.87.83v2a12.35,12.35,0,0,0-5.12-1.07,6.5,6.5,0,0,0-4.39,1.4,4.5,4.5,0,0,0-1.63,3.58,4.79,4.79,0,0,0,1.11,3.31,21.66,21.66,0,0,0,4.8,3.37,17.18,17.18,0,0,1,5.08,3.84,6.24,6.24,0,0,1,1.27,3.86,6.58,6.58,0,0,1-2.18,5.11,8.81,8.81,0,0,1-6.13,2,14.15,14.15,0,0,1-3.24-.44A10.71,10.71,0,0,1,680.32,403.19Z"/><path class="cls-2" d="M740.1,404.16V376.93H752.8v1.74H742v10.92H752v1.71H742v11.16h11.46v1.71Z"/></svg>